<?xml version="1.0" encoding="utf-8"?>
<!-- Generator: Adobe Illustrator 16.0.0, SVG Export Plug-In . SVG Version: 6.00 Build 0)  -->
<!DOCTYPE svg PUBLIC "-//W3C//DTD SVG 1.1//EN" "http://www.w3.org/Graphics/SVG/1.1/DTD/svg11.dtd">
<svg version="1.1" id="Layer_2" xmlns="http://www.w3.org/2000/svg" xmlns:xlink="http://www.w3.org/1999/xlink" x="0px" y="0px"
	 width="725.251px" height="247.281px" viewBox="0 0 725.251 247.281" enable-background="new 0 0 725.251 247.281"
	 xml:space="preserve">
<g>
	<polyline fill="#FFFFFF" points="242.847,0 53.91,0 77.674,39.604 219.083,39.604 	"/>
	<polygon fill="#FFFFFF" points="148.379,157.438 113.026,98.521 53.91,0 0,0 121.424,202.359 148.379,247.281 175.334,202.359 	"/>
	<polygon fill="#FFFFFF" points="242.847,0 183.731,98.521 148.379,157.438 175.334,202.359 296.758,0 	"/>
</g>
<g>
	<path fill="#FFFFFF" d="M379.483,182.023l-51.304-127.21h18.119l42.912,109.854l42.911-109.854h18.119l-51.113,127.21H379.483z"/>
	<path fill="#FFFFFF" d="M454.244,135.869c0-26.701,19.072-48.252,45.392-48.252c27.845,0,44.246,21.742,44.246,49.396v3.624h-74.38
		c1.144,17.355,13.159,31.85,32.994,31.85c10.681,0,21.17-4.195,28.608-11.824l6.865,9.345
		c-9.345,9.155-21.742,14.305-36.618,14.305C473.888,184.312,454.244,164.668,454.244,135.869z M499.444,99.442
		c-19.644,0-29.37,16.593-30.134,30.515h60.459C529.578,116.416,520.423,99.442,499.444,99.442z"/>
	<path fill="#FFFFFF" d="M571.724,182.023V89.906h14.305v14.686c7.438-9.536,18.118-16.783,30.705-16.783v14.685
		c-1.716-0.19-3.433-0.381-5.53-0.381c-8.964,0-20.979,7.248-25.175,14.686v65.226H571.724z"/>
	<path fill="#FFFFFF" d="M634.087,135.869c0-26.701,17.546-48.252,45.582-48.252s45.582,21.551,45.582,48.252
		c0,26.701-17.546,48.443-45.582,48.443S634.087,162.57,634.087,135.869z M710.184,135.869c0-18.69-10.871-35.474-30.515-35.474
		c-19.645,0-30.516,16.783-30.516,35.474c0,18.882,10.871,35.665,30.516,35.665C699.313,171.534,710.184,154.751,710.184,135.869z"
		/>
</g>
<g id="Layer_1">
</g>
</svg>
